<svg  viewBox="0 0 24 24" width="24" height="24">
<path  d="M 12 0.289062 C 5.53125 0.289062 0.289062 5.53125 0.289062 12 C 0.289062 17.871094 4.613281 22.71875 10.25 23.566406 L 10.25 15.105469 L 7.351562 15.105469 L 7.351562 12.023438 L 10.25 12.023438 L 10.25 9.976562 C 10.25 6.585938 11.902344 5.097656 14.71875 5.097656 C 16.070312 5.097656 16.785156 5.199219 17.121094 5.242188 L 17.121094 7.929688 L 15.199219 7.929688 C 14.003906 7.929688 13.585938 9.0625 13.585938 10.34375 L 13.585938 12.023438 L 17.089844 12.023438 L 16.617188 15.105469 L 13.585938 15.105469 L 13.585938 23.59375 C 19.300781 22.816406 23.710938 17.929688 23.710938 12 C 23.710938 5.53125 18.46875 0.289062 12 0.289062 Z M 12 0.289062 "/>
</svg>
