<svg  viewBox="0 0 24 24" width="24" height="24">
<path  d="M 7.078125 0.191406 C 3.28125 0.191406 0.191406 3.285156 0.191406 7.082031 L 0.191406 16.921875 C 0.191406 20.71875 3.285156 23.808594 7.082031 23.808594 L 16.921875 23.808594 C 20.71875 23.808594 23.808594 20.714844 23.808594 16.917969 L 23.808594 7.078125 C 23.808594 3.28125 20.714844 0.191406 16.917969 0.191406 Z M 18.886719 4.128906 C 19.429688 4.128906 19.871094 4.570312 19.871094 5.113281 C 19.871094 5.65625 19.429688 6.097656 18.886719 6.097656 C 18.34375 6.097656 17.902344 5.65625 17.902344 5.113281 C 17.902344 4.570312 18.34375 4.128906 18.886719 4.128906 Z M 12 6.097656 C 15.257812 6.097656 17.902344 8.742188 17.902344 12 C 17.902344 15.257812 15.257812 17.902344 12 17.902344 C 8.742188 17.902344 6.097656 15.257812 6.097656 12 C 6.097656 8.742188 8.742188 6.097656 12 6.097656 Z M 12 8.0625 C 9.828125 8.0625 8.0625 9.828125 8.0625 12 C 8.0625 14.171875 9.828125 15.9375 12 15.9375 C 14.171875 15.9375 15.9375 14.171875 15.9375 12 C 15.9375 9.828125 14.171875 8.0625 12 8.0625 Z M 12 8.0625 "/>
</svg>
